<svg width="170" height="36" viewBox="0 0 170 36" fill="none" xmlns="http://www.w3.org/2000/svg">
<path d="M56.668 26.22C55.2307 26.22 53.8813 25.9853 52.62 25.516C51.3587 25.032 50.266 24.3427 49.342 23.448C49.122 23.228 49.012 22.9787 49.012 22.7C49.012 22.3773 49.1587 22.0693 49.452 21.776C49.6867 21.5413 49.9433 21.424 50.222 21.424C50.5153 21.424 50.8673 21.5927 51.278 21.93C51.9673 22.5607 52.7813 23.052 53.72 23.404C54.6733 23.7413 55.656 23.91 56.668 23.91C57.636 23.91 58.3913 23.7487 58.934 23.426C59.4767 23.0887 59.748 22.6193 59.748 22.018C59.748 21.3873 59.4547 20.8813 58.868 20.5C58.2813 20.104 57.284 19.752 55.876 19.444C53.6613 18.96 52.048 18.322 51.036 17.53C50.0387 16.738 49.54 15.7187 49.54 14.472C49.54 13.68 49.804 12.976 50.332 12.36C50.86 11.7293 51.5933 11.2453 52.532 10.908C53.4853 10.556 54.5707 10.38 55.788 10.38C57.152 10.38 58.362 10.6073 59.418 11.062C60.4887 11.502 61.3027 12.1253 61.86 12.932C62.0507 13.24 62.146 13.504 62.146 13.724C62.1313 14.0907 61.948 14.406 61.596 14.67C61.4053 14.802 61.1853 14.868 60.936 14.868C60.4813 14.868 60.1073 14.692 59.814 14.34C59.3887 13.8267 58.8167 13.4233 58.098 13.13C57.394 12.8367 56.624 12.69 55.788 12.69C54.7467 12.69 53.9327 12.8513 53.346 13.174C52.774 13.482 52.488 13.9147 52.488 14.472C52.488 15.0293 52.7667 15.4913 53.324 15.858C53.896 16.21 54.8787 16.5473 56.272 16.87C57.812 17.2367 59.0513 17.6547 59.99 18.124C60.9287 18.5787 61.6107 19.1213 62.036 19.752C62.476 20.3827 62.696 21.138 62.696 22.018C62.696 22.854 62.4467 23.5947 61.948 24.24C61.4493 24.8707 60.7453 25.362 59.836 25.714C58.9267 26.0513 57.8707 26.22 56.668 26.22ZM66.1471 26.22C65.6924 26.22 65.3404 26.1027 65.0911 25.868C64.8417 25.6333 64.7171 25.3107 64.7171 24.9V16.32C64.7171 15.8947 64.8344 15.572 65.0691 15.352C65.3184 15.1173 65.6631 15 66.1031 15C66.5431 15 66.8877 15.1173 67.1371 15.352C67.3864 15.5867 67.5111 15.9093 67.5111 16.32V16.958C68.5524 15.6527 69.9751 15 71.7791 15C73.1871 15 74.2944 15.4473 75.1011 16.342C75.9224 17.222 76.3331 18.4247 76.3331 19.95V24.9C76.3331 25.3107 76.2011 25.6333 75.9371 25.868C75.6731 26.1027 75.3211 26.22 74.8811 26.22C74.4264 26.22 74.0744 26.1027 73.8251 25.868C73.5757 25.6333 73.4511 25.3107 73.4511 24.9V19.95C73.4511 19.114 73.2457 18.4613 72.8351 17.992C72.4244 17.5227 71.8524 17.288 71.1191 17.288C70.0044 17.288 69.1391 17.618 68.5231 18.278C67.9071 18.9233 67.5991 19.8327 67.5991 21.006V24.9C67.5991 25.3107 67.4671 25.6333 67.2031 25.868C66.9391 26.1027 66.5871 26.22 66.1471 26.22ZM82.6522 26.22C81.7429 26.22 80.9362 26.066 80.2322 25.758C79.5429 25.45 79.0002 25.0247 78.6042 24.482C78.2229 23.9247 78.0322 23.2867 78.0322 22.568C78.0322 21.4827 78.4796 20.6173 79.3742 19.972C80.2836 19.3267 81.5082 19.004 83.0482 19.004C84.3829 19.004 85.4536 19.29 86.2602 19.862V19.334C86.2602 18.6447 86.0476 18.1167 85.6222 17.75C85.1969 17.3833 84.5809 17.2 83.7742 17.2C82.5716 17.2 81.5376 17.4567 80.6722 17.97C80.3056 18.1753 79.9902 18.278 79.7262 18.278C79.4036 18.278 79.1176 18.1313 78.8682 17.838C78.7069 17.6327 78.6262 17.42 78.6262 17.2C78.6262 16.8333 78.8169 16.5107 79.1982 16.232C79.7262 15.8507 80.3936 15.55 81.2002 15.33C82.0069 15.11 82.8576 15 83.7522 15C85.4536 15 86.7882 15.3887 87.7562 16.166C88.7389 16.9287 89.2302 17.9847 89.2302 19.334V24.988C89.2302 25.3693 89.0982 25.67 88.8342 25.89C88.5849 26.11 88.2402 26.22 87.8002 26.22C87.3456 26.22 86.9936 26.1173 86.7442 25.912C86.4949 25.7067 86.3702 25.4133 86.3702 25.032V24.79C85.5342 25.7433 84.2949 26.22 82.6522 26.22ZM83.3342 24.196C84.2582 24.196 84.9769 24.0567 85.4902 23.778C86.0182 23.4847 86.2822 23.0813 86.2822 22.568C86.2822 22.084 86.0182 21.6953 85.4902 21.402C84.9622 21.1087 84.2582 20.962 83.3782 20.962C82.5862 20.962 81.9702 21.1013 81.5302 21.38C81.1049 21.6587 80.8922 22.0547 80.8922 22.568C80.8922 23.0813 81.1049 23.4847 81.5302 23.778C81.9556 24.0567 82.5569 24.196 83.3342 24.196ZM92.5729 32.578C92.1182 32.578 91.7662 32.4607 91.5169 32.226C91.2675 31.9913 91.1429 31.6687 91.1429 31.258V16.32C91.1429 15.9093 91.2675 15.5867 91.5169 15.352C91.7662 15.1173 92.1182 15 92.5729 15C93.0129 15 93.3649 15.1173 93.6289 15.352C93.8929 15.5867 94.0249 15.9093 94.0249 16.32V16.76C94.6555 16.144 95.3082 15.6967 95.9829 15.418C96.6722 15.1393 97.4495 15 98.3149 15C99.4589 15 100.456 15.2273 101.307 15.682C102.172 16.1367 102.832 16.7893 103.287 17.64C103.756 18.476 103.991 19.466 103.991 20.61C103.991 21.7393 103.756 22.7293 103.287 23.58C102.818 24.4307 102.15 25.0833 101.285 25.538C100.42 25.9927 99.4002 26.22 98.2269 26.22C97.3469 26.22 96.5769 26.088 95.9169 25.824C95.2569 25.5453 94.6335 25.1053 94.0469 24.504L94.0249 31.258C94.0249 31.6687 93.8929 31.9913 93.6289 32.226C93.3649 32.4607 93.0129 32.578 92.5729 32.578ZM97.6329 23.932C98.7182 23.932 99.5615 23.646 100.163 23.074C100.779 22.4873 101.087 21.666 101.087 20.61C101.087 19.554 100.779 18.74 100.163 18.168C99.5615 17.5813 98.7182 17.288 97.6329 17.288C96.5035 17.288 95.6162 17.5887 94.9709 18.19C94.3402 18.7767 94.0249 19.5833 94.0249 20.61C94.0249 21.6367 94.3402 22.4507 94.9709 23.052C95.6162 23.6387 96.5035 23.932 97.6329 23.932ZM113.869 26.22C112.212 26.22 110.775 25.9047 109.557 25.274C108.34 24.6433 107.409 23.734 106.763 22.546C106.118 21.358 105.795 19.95 105.795 18.322C105.795 16.694 106.118 15.286 106.763 14.098C107.409 12.8953 108.333 11.9787 109.535 11.348C110.753 10.7027 112.183 10.38 113.825 10.38C115.189 10.38 116.451 10.6147 117.609 11.084C118.768 11.5533 119.626 12.1767 120.183 12.954C120.359 13.1887 120.447 13.4307 120.447 13.68C120.447 14.0467 120.249 14.3767 119.853 14.67C119.677 14.802 119.457 14.868 119.193 14.868C118.973 14.868 118.753 14.824 118.533 14.736C118.313 14.6333 118.13 14.494 117.983 14.318C117.485 13.746 116.905 13.3353 116.245 13.086C115.585 12.822 114.779 12.69 113.825 12.69C112.227 12.69 110.98 13.1887 110.085 14.186C109.191 15.1687 108.743 16.5473 108.743 18.322C108.743 20.082 109.191 21.4533 110.085 22.436C110.995 23.4187 112.256 23.91 113.869 23.91C115.717 23.91 117.191 23.3673 118.291 22.282C118.746 21.8567 119.164 21.644 119.545 21.644C119.809 21.644 120.051 21.732 120.271 21.908C120.609 22.2013 120.777 22.524 120.777 22.876C120.777 23.14 120.682 23.3967 120.491 23.646C119.861 24.4527 118.959 25.0833 117.785 25.538C116.627 25.9927 115.321 26.22 113.869 26.22ZM124.241 26.22C123.786 26.22 123.434 26.1027 123.185 25.868C122.935 25.6333 122.811 25.3107 122.811 24.9V10.622C122.811 10.2113 122.935 9.88867 123.185 9.654C123.434 9.41933 123.786 9.302 124.241 9.302C124.681 9.302 125.033 9.41933 125.297 9.654C125.561 9.88867 125.693 10.2113 125.693 10.622V16.958C126.235 16.2833 126.844 15.792 127.519 15.484C128.193 15.1613 128.978 15 129.873 15C131.281 15 132.388 15.4473 133.195 16.342C134.016 17.222 134.427 18.4247 134.427 19.95V24.9C134.427 25.3107 134.295 25.6333 134.031 25.868C133.767 26.1027 133.415 26.22 132.975 26.22C132.52 26.22 132.168 26.1027 131.919 25.868C131.669 25.6333 131.545 25.3107 131.545 24.9V19.95C131.545 19.114 131.339 18.4613 130.929 17.992C130.518 17.5227 129.946 17.288 129.213 17.288C128.098 17.288 127.233 17.618 126.617 18.278C126.001 18.9233 125.693 19.8327 125.693 21.006V24.9C125.693 25.3107 125.561 25.6333 125.297 25.868C125.033 26.1027 124.681 26.22 124.241 26.22ZM142.36 26.22C141.084 26.22 139.947 25.9927 138.95 25.538C137.967 25.0687 137.197 24.4087 136.64 23.558C136.082 22.7073 135.804 21.7247 135.804 20.61C135.804 19.4953 136.082 18.5127 136.64 17.662C137.197 16.8113 137.967 16.1587 138.95 15.704C139.947 15.2347 141.084 15 142.36 15C143.636 15 144.765 15.2347 145.748 15.704C146.745 16.1587 147.522 16.8113 148.08 17.662C148.637 18.5127 148.916 19.4953 148.916 20.61C148.916 21.7247 148.637 22.7073 148.08 23.558C147.522 24.4087 146.745 25.0687 145.748 25.538C144.765 25.9927 143.636 26.22 142.36 26.22ZM142.36 23.932C143.489 23.932 144.376 23.6387 145.022 23.052C145.682 22.4653 146.012 21.6513 146.012 20.61C146.012 19.5687 145.682 18.7547 145.022 18.168C144.376 17.5813 143.489 17.288 142.36 17.288C141.23 17.288 140.336 17.5813 139.676 18.168C139.03 18.7547 138.708 19.5687 138.708 20.61C138.708 21.6513 139.03 22.4653 139.676 23.052C140.336 23.6387 141.23 23.932 142.36 23.932ZM152.149 26.22C151.694 26.22 151.342 26.1027 151.093 25.868C150.844 25.6333 150.719 25.3107 150.719 24.9V16.32C150.719 15.8947 150.836 15.572 151.071 15.352C151.32 15.1173 151.665 15 152.105 15C152.545 15 152.89 15.1173 153.139 15.352C153.388 15.5867 153.513 15.9093 153.513 16.32V17.046C153.968 16.4593 154.496 16.012 155.097 15.704C155.713 15.3813 156.373 15.22 157.077 15.22H157.561C158.03 15.22 158.39 15.3227 158.639 15.528C158.903 15.7187 159.035 15.9973 159.035 16.364C159.035 16.7307 158.903 17.0167 158.639 17.222C158.39 17.4127 158.03 17.508 157.561 17.508H156.813C155.83 17.508 155.046 17.8233 154.459 18.454C153.887 19.07 153.601 19.9207 153.601 21.006V24.9C153.601 25.3107 153.469 25.6333 153.205 25.868C152.941 26.1027 152.589 26.22 152.149 26.22ZM168.826 23.162C169.061 23.3527 169.178 23.5873 169.178 23.866C169.178 24.1447 169.075 24.4307 168.87 24.724C168.547 25.1933 168.093 25.56 167.506 25.824C166.919 26.088 166.259 26.22 165.526 26.22C164.353 26.22 163.429 25.9047 162.754 25.274C162.094 24.6287 161.764 23.7487 161.764 22.634V17.486H160.862C160.422 17.486 160.07 17.3833 159.806 17.178C159.542 16.9727 159.41 16.7013 159.41 16.364C159.41 16.012 159.535 15.7333 159.784 15.528C160.048 15.3227 160.407 15.22 160.862 15.22H161.764V11.898C161.764 11.4873 161.896 11.1647 162.16 10.93C162.424 10.6953 162.776 10.578 163.216 10.578C163.671 10.578 164.023 10.6953 164.272 10.93C164.521 11.1647 164.646 11.4873 164.646 11.898V15.22H166.758C167.213 15.22 167.565 15.3227 167.814 15.528C168.078 15.7333 168.21 16.012 168.21 16.364C168.21 16.7013 168.078 16.9727 167.814 17.178C167.565 17.3833 167.213 17.486 166.758 17.486H164.646V22.876C164.646 23.1987 164.741 23.4553 164.932 23.646C165.137 23.8367 165.409 23.932 165.746 23.932C166.01 23.932 166.237 23.8953 166.428 23.822C166.633 23.734 166.839 23.5947 167.044 23.404C167.425 23.0373 167.777 22.854 168.1 22.854C168.335 22.854 168.577 22.9567 168.826 23.162Z" fill="white"/>
<path d="M26.8891 9.06068L23.8492 10.2634L25.6863 12.1006L26.8891 9.06068Z" fill="url(#paint0_linear_115_11)"/>
<path d="M9.06066 9.06068L12.1005 10.2634L10.2634 12.1006L9.06066 9.06068Z" fill="url(#paint1_linear_115_11)"/>
<circle cx="18" cy="18" r="16.5" stroke="url(#paint2_linear_115_11)" stroke-width="3"/>
<circle cx="18" cy="18" r="10" fill="url(#paint3_linear_115_11)"/>
<defs>
<linearGradient id="paint0_linear_115_11" x1="26.8891" y1="9.06068" x2="25" y2="11" gradientUnits="userSpaceOnUse">
<stop stop-color="#BC5252"/>
<stop offset="1" stop-color="#5C0095"/>
</linearGradient>
<linearGradient id="paint1_linear_115_11" x1="9.06066" y1="9.06068" x2="10.9497" y2="11" gradientUnits="userSpaceOnUse">
<stop stop-color="#BC5252"/>
<stop offset="1" stop-color="#5C0095"/>
</linearGradient>
<linearGradient id="paint2_linear_115_11" x1="18" y1="2.98023e-07" x2="8" y2="34" gradientUnits="userSpaceOnUse">
<stop stop-color="#7C2EB9"/>
<stop offset="1" stop-color="#3A2748"/>
</linearGradient>
<linearGradient id="paint3_linear_115_11" x1="18" y1="8" x2="27.5" y2="21.5" gradientUnits="userSpaceOnUse">
<stop stop-color="#7C2EB9"/>
<stop offset="1" stop-color="#3A2748"/>
</linearGradient>
</defs>
</svg>
